<?xml version="1.0" encoding="UTF-8"?>
<svg id="Layer_2" data-name="Layer 2" xmlns="http://www.w3.org/2000/svg" viewBox="0 0 297 351">
  <defs>
    <style>
      .cls-1 {
        fill: #FFC470;
      }
    </style>
  </defs>
  <g id="Layer_4" data-name="Layer 4">
    <g>
      <polygon class="cls-1" points="297 0 297 135 189 135 189 324 297 324 297 351 162 351 162 108 270 108 270 27 162 27 162 0 297 0"/>
      <polygon class="cls-1" points="135 0 135 135 27 135 27 324 135 324 135 351 0 351 0 108 108 108 108 27 0 27 0 0 135 0"/>
      <path class="cls-1" d="m54,162v135h81v-135H54Zm54,108h-27v-81h27v81Z"/>
      <polygon class="cls-1" points="297 162 297 297 270 297 270 243 216 243 216 162 243 162 243 216 270 216 270 162 297 162"/>
    </g>
  </g>
</svg>